<mxfile modified="2023-04-17T21:03:10.952Z" host="app.diagrams.net" agent="Mozilla/5.0 (X11; Linux x86_64) AppleWebKit/537.36 (KHTML, like Gecko) Chrome/112.0.0.0 Safari/537.36" etag="OtM5CbVLNWopr2y0faEU" version="21.1.8" type="github">
  <diagram id="Ht1M8jgEwFfnCIfOTk4-" name="Page-1">
    <mxGraphModel dx="1390" dy="775" grid="1" gridSize="10" guides="1" tooltips="1" connect="1" arrows="1" fold="1" page="1" pageScale="1" pageWidth="827" pageHeight="1169" math="0" shadow="0">
      <root>
        <mxCell id="0" />
        <mxCell id="1" parent="0" />
        <mxCell id="UEzPUAAOIrF-is8g5C7q-2" value="AWS Cloud" style="points=[[0,0],[0.25,0],[0.5,0],[0.75,0],[1,0],[1,0.25],[1,0.5],[1,0.75],[1,1],[0.75,1],[0.5,1],[0.25,1],[0,1],[0,0.75],[0,0.5],[0,0.25]];outlineConnect=0;gradientColor=none;html=1;whiteSpace=wrap;fontSize=12;fontStyle=0;shape=mxgraph.aws4.group;grIcon=mxgraph.aws4.group_aws_cloud_alt;strokeColor=#232F3E;fillColor=none;verticalAlign=top;align=left;spacingLeft=30;fontColor=#232F3E;dashed=0;container=1;pointerEvents=0;collapsible=0;recursiveResize=0;" parent="1" vertex="1">
          <mxGeometry x="212" y="189.5" width="1025.5" height="486" as="geometry" />
        </mxCell>
        <mxCell id="tkfGIVQJVNPWEHhbewNU-13" style="edgeStyle=orthogonalEdgeStyle;rounded=0;orthogonalLoop=1;jettySize=auto;html=1;" parent="UEzPUAAOIrF-is8g5C7q-2" source="tkfGIVQJVNPWEHhbewNU-3" target="tkfGIVQJVNPWEHhbewNU-4" edge="1">
          <mxGeometry relative="1" as="geometry" />
        </mxCell>
        <mxCell id="tkfGIVQJVNPWEHhbewNU-3" value="" style="sketch=0;points=[[0,0,0],[0.25,0,0],[0.5,0,0],[0.75,0,0],[1,0,0],[0,1,0],[0.25,1,0],[0.5,1,0],[0.75,1,0],[1,1,0],[0,0.25,0],[0,0.5,0],[0,0.75,0],[1,0.25,0],[1,0.5,0],[1,0.75,0]];outlineConnect=0;fontColor=#232F3E;gradientColor=#945DF2;gradientDirection=north;fillColor=#5A30B5;strokeColor=#ffffff;dashed=0;verticalLabelPosition=bottom;verticalAlign=top;align=center;html=1;fontSize=12;fontStyle=0;aspect=fixed;shape=mxgraph.aws4.resourceIcon;resIcon=mxgraph.aws4.cloudfront;" parent="UEzPUAAOIrF-is8g5C7q-2" vertex="1">
          <mxGeometry x="350" y="155" width="78" height="78" as="geometry" />
        </mxCell>
        <mxCell id="tkfGIVQJVNPWEHhbewNU-11" style="edgeStyle=orthogonalEdgeStyle;rounded=0;orthogonalLoop=1;jettySize=auto;html=1;" parent="UEzPUAAOIrF-is8g5C7q-2" source="tkfGIVQJVNPWEHhbewNU-1" target="tkfGIVQJVNPWEHhbewNU-3" edge="1">
          <mxGeometry relative="1" as="geometry">
            <Array as="points">
              <mxPoint x="799" y="195" />
            </Array>
          </mxGeometry>
        </mxCell>
        <mxCell id="tkfGIVQJVNPWEHhbewNU-1" value="" style="sketch=0;points=[[0,0,0],[0.25,0,0],[0.5,0,0],[0.75,0,0],[1,0,0],[0,1,0],[0.25,1,0],[0.5,1,0],[0.75,1,0],[1,1,0],[0,0.25,0],[0,0.5,0],[0,0.75,0],[1,0.25,0],[1,0.5,0],[1,0.75,0]];outlineConnect=0;fontColor=#232F3E;gradientColor=#60A337;gradientDirection=north;fillColor=#277116;strokeColor=#ffffff;dashed=0;verticalLabelPosition=bottom;verticalAlign=top;align=center;html=1;fontSize=12;fontStyle=0;aspect=fixed;shape=mxgraph.aws4.resourceIcon;resIcon=mxgraph.aws4.s3;" parent="UEzPUAAOIrF-is8g5C7q-2" vertex="1">
          <mxGeometry x="760" y="345" width="78" height="78" as="geometry" />
        </mxCell>
        <mxCell id="tkfGIVQJVNPWEHhbewNU-4" value="" style="outlineConnect=0;dashed=0;verticalLabelPosition=bottom;verticalAlign=top;align=center;html=1;shape=mxgraph.aws3.route_53;fillColor=#F58536;gradientColor=none;" parent="UEzPUAAOIrF-is8g5C7q-2" vertex="1">
          <mxGeometry x="40" y="151.25" width="70.5" height="85.5" as="geometry" />
        </mxCell>
        <mxCell id="-QjtrjUzRDEMRZ5MF8oH-47" value="Frontend" style="text;html=1;resizable=0;points=[];autosize=1;align=left;verticalAlign=top;spacingTop=-4;fontSize=30;fontStyle=1" parent="1" vertex="1">
          <mxGeometry x="184" y="60" width="150" height="40" as="geometry" />
        </mxCell>
        <mxCell id="-QjtrjUzRDEMRZ5MF8oH-48" value="AWS Architecture of Frontend&amp;nbsp;" style="text;html=1;resizable=0;points=[];autosize=1;align=left;verticalAlign=top;spacingTop=-4;fontSize=16" parent="1" vertex="1">
          <mxGeometry x="184" y="100" width="240" height="30" as="geometry" />
        </mxCell>
        <mxCell id="SCVMTBWpLvtzJIhz15lM-1" value="" style="line;strokeWidth=2;html=1;fontSize=14;" parent="1" vertex="1">
          <mxGeometry x="180" y="125" width="1060" height="10" as="geometry" />
        </mxCell>
        <mxCell id="tkfGIVQJVNPWEHhbewNU-2" value="" style="shape=image;html=1;verticalAlign=top;verticalLabelPosition=bottom;labelBackgroundColor=#ffffff;imageAspect=0;aspect=fixed;image=https://cdn4.iconfinder.com/data/icons/ionicons/512/icon-social-github-128.png" parent="1" vertex="1">
          <mxGeometry x="1121.5" y="862.5" width="78" height="78" as="geometry" />
        </mxCell>
        <mxCell id="tkfGIVQJVNPWEHhbewNU-5" value="" style="shape=image;html=1;verticalAlign=top;verticalLabelPosition=bottom;labelBackgroundColor=#ffffff;imageAspect=0;aspect=fixed;image=https://cdn4.iconfinder.com/data/icons/ionicons/512/icon-social-github-128.png" parent="1" vertex="1">
          <mxGeometry x="882" y="862.5" width="78" height="78" as="geometry" />
        </mxCell>
        <mxCell id="tkfGIVQJVNPWEHhbewNU-9" style="edgeStyle=orthogonalEdgeStyle;rounded=0;orthogonalLoop=1;jettySize=auto;html=1;entryX=0;entryY=0.5;entryDx=0;entryDy=0;entryPerimeter=0;" parent="1" source="tkfGIVQJVNPWEHhbewNU-7" target="tkfGIVQJVNPWEHhbewNU-1" edge="1">
          <mxGeometry relative="1" as="geometry" />
        </mxCell>
        <mxCell id="tkfGIVQJVNPWEHhbewNU-7" value="Hero Pages&#xa;hero/" style="rounded=1;arcSize=10;dashed=1;fillColor=none;gradientColor=none;dashPattern=1 1;strokeWidth=2;" parent="1" vertex="1">
          <mxGeometry x="800" y="852.5" width="199.5" height="199.5" as="geometry" />
        </mxCell>
        <mxCell id="tkfGIVQJVNPWEHhbewNU-10" style="edgeStyle=orthogonalEdgeStyle;rounded=0;orthogonalLoop=1;jettySize=auto;html=1;entryX=1;entryY=0.5;entryDx=0;entryDy=0;entryPerimeter=0;" parent="1" source="tkfGIVQJVNPWEHhbewNU-8" target="tkfGIVQJVNPWEHhbewNU-1" edge="1">
          <mxGeometry relative="1" as="geometry" />
        </mxCell>
        <mxCell id="tkfGIVQJVNPWEHhbewNU-8" value="Authentication Pages&#xa;authenticate/" style="rounded=1;arcSize=10;dashed=1;fillColor=none;gradientColor=none;dashPattern=1 1;strokeWidth=2;" parent="1" vertex="1">
          <mxGeometry x="1050" y="852.5" width="199.5" height="199.5" as="geometry" />
        </mxCell>
        <mxCell id="tkfGIVQJVNPWEHhbewNU-14" value="" style="shape=image;html=1;verticalAlign=top;verticalLabelPosition=bottom;labelBackgroundColor=#ffffff;imageAspect=0;aspect=fixed;image=https://cdn4.iconfinder.com/data/icons/ionicons/512/icon-social-github-128.png" parent="1" vertex="1">
          <mxGeometry x="644" y="862.5" width="70" height="70" as="geometry" />
        </mxCell>
        <mxCell id="tkfGIVQJVNPWEHhbewNU-16" style="edgeStyle=orthogonalEdgeStyle;rounded=0;orthogonalLoop=1;jettySize=auto;html=1;" parent="1" source="tkfGIVQJVNPWEHhbewNU-15" target="tkfGIVQJVNPWEHhbewNU-1" edge="1">
          <mxGeometry relative="1" as="geometry">
            <Array as="points">
              <mxPoint x="652" y="573.5" />
            </Array>
          </mxGeometry>
        </mxCell>
        <mxCell id="tkfGIVQJVNPWEHhbewNU-15" value="Container Page&#xa;container/" style="rounded=1;arcSize=10;dashed=1;fillColor=none;gradientColor=none;dashPattern=1 1;strokeWidth=2;" parent="1" vertex="1">
          <mxGeometry x="562" y="852.5" width="199.5" height="199.5" as="geometry" />
        </mxCell>
        <mxCell id="tkfGIVQJVNPWEHhbewNU-17" value="ap-south-1" style="sketch=0;outlineConnect=0;gradientColor=none;html=1;whiteSpace=wrap;fontSize=12;fontStyle=0;shape=mxgraph.aws4.group;grIcon=mxgraph.aws4.group_region;strokeColor=#879196;fillColor=none;verticalAlign=top;align=left;spacingLeft=30;fontColor=#879196;dashed=1;" parent="1" vertex="1">
          <mxGeometry x="232" y="234.5" width="970" height="410" as="geometry" />
        </mxCell>
        <mxCell id="tkfGIVQJVNPWEHhbewNU-18" value="" style="shape=image;html=1;verticalAlign=top;verticalLabelPosition=bottom;labelBackgroundColor=#ffffff;imageAspect=0;aspect=fixed;image=https://cdn4.iconfinder.com/data/icons/ionicons/512/icon-social-github-128.png" parent="1" vertex="1">
          <mxGeometry x="372" y="872.5" width="62" height="62" as="geometry" />
        </mxCell>
        <mxCell id="tkfGIVQJVNPWEHhbewNU-21" style="edgeStyle=orthogonalEdgeStyle;rounded=0;orthogonalLoop=1;jettySize=auto;html=1;" parent="1" source="tkfGIVQJVNPWEHhbewNU-19" target="UEzPUAAOIrF-is8g5C7q-2" edge="1">
          <mxGeometry relative="1" as="geometry">
            <mxPoint x="421.75" y="684.5" as="targetPoint" />
            <Array as="points">
              <mxPoint x="392" y="674.5" />
              <mxPoint x="392" y="674.5" />
            </Array>
          </mxGeometry>
        </mxCell>
        <mxCell id="tkfGIVQJVNPWEHhbewNU-19" value="Front Infra Terraform Code" style="rounded=1;arcSize=10;dashed=1;fillColor=none;gradientColor=none;dashPattern=1 1;strokeWidth=2;" parent="1" vertex="1">
          <mxGeometry x="302" y="852.5" width="199.5" height="199.5" as="geometry" />
        </mxCell>
        <mxCell id="tkfGIVQJVNPWEHhbewNU-20" value="" style="shape=image;verticalLabelPosition=bottom;labelBackgroundColor=default;verticalAlign=top;aspect=fixed;imageAspect=0;image=https://www.aviator.co/blog/wp-content/uploads/2023/01/terraform.png;" parent="1" vertex="1">
          <mxGeometry x="304" y="972.5" width="90" height="67.5" as="geometry" />
        </mxCell>
        <mxCell id="tkfGIVQJVNPWEHhbewNU-22" value="" style="shape=image;verticalLabelPosition=bottom;labelBackgroundColor=default;verticalAlign=top;aspect=fixed;imageAspect=0;image=https://www.aviator.co/blog/wp-content/uploads/2023/01/terraform.png;" parent="1" vertex="1">
          <mxGeometry x="212" y="684.5" width="70" height="52.5" as="geometry" />
        </mxCell>
        <mxCell id="tkfGIVQJVNPWEHhbewNU-23" value="AWS Infra to show the frontend" style="rounded=1;arcSize=10;dashed=1;fillColor=none;gradientColor=none;dashPattern=1 1;strokeWidth=2;" parent="1" vertex="1">
          <mxGeometry x="177.75" y="167" width="1094" height="575" as="geometry" />
        </mxCell>
        <mxCell id="tkfGIVQJVNPWEHhbewNU-24" value="Using GitHub Action To Upload in s3" style="text;html=1;align=center;verticalAlign=middle;resizable=0;points=[];autosize=1;strokeColor=none;fillColor=none;" parent="1" vertex="1">
          <mxGeometry x="1039.75" y="768" width="220" height="30" as="geometry" />
        </mxCell>
        <mxCell id="tkfGIVQJVNPWEHhbewNU-25" value="Using GitHub Action To Upload in s3" style="text;html=1;align=center;verticalAlign=middle;resizable=0;points=[];autosize=1;strokeColor=none;fillColor=none;" parent="1" vertex="1">
          <mxGeometry x="541.5" y="768" width="220" height="30" as="geometry" />
        </mxCell>
        <mxCell id="tkfGIVQJVNPWEHhbewNU-26" value="Using GitHub Action To Upload in s3" style="text;html=1;align=center;verticalAlign=middle;resizable=0;points=[];autosize=1;strokeColor=none;fillColor=none;" parent="1" vertex="1">
          <mxGeometry x="789.75" y="768" width="220" height="30" as="geometry" />
        </mxCell>
        <mxCell id="tkfGIVQJVNPWEHhbewNU-29" value="Using GitHub Action To Upload in s3" style="text;html=1;align=center;verticalAlign=middle;resizable=0;points=[];autosize=1;strokeColor=none;fillColor=none;" parent="1" vertex="1">
          <mxGeometry x="293" y="768" width="220" height="30" as="geometry" />
        </mxCell>
        <mxCell id="J3DR8CgU-SjV--Wl0S02-1" value="AWS Route 53&amp;nbsp;&lt;br&gt;Will Contain the domain" style="text;html=1;align=center;verticalAlign=middle;resizable=0;points=[];autosize=1;strokeColor=none;fillColor=none;" vertex="1" parent="1">
          <mxGeometry x="229" y="434.5" width="150" height="40" as="geometry" />
        </mxCell>
        <mxCell id="J3DR8CgU-SjV--Wl0S02-2" value="Cloudfront will the CDN for faster delivery of the frontend" style="text;html=1;align=center;verticalAlign=middle;resizable=0;points=[];autosize=1;strokeColor=none;fillColor=none;" vertex="1" parent="1">
          <mxGeometry x="450" y="310" width="320" height="30" as="geometry" />
        </mxCell>
        <mxCell id="J3DR8CgU-SjV--Wl0S02-3" value="All the build folders are stored in S3" style="text;html=1;align=center;verticalAlign=middle;resizable=0;points=[];autosize=1;strokeColor=none;fillColor=none;" vertex="1" parent="1">
          <mxGeometry x="911.5" y="614.5" width="210" height="30" as="geometry" />
        </mxCell>
        <mxCell id="J3DR8CgU-SjV--Wl0S02-5" value="" style="outlineConnect=0;dashed=0;verticalLabelPosition=bottom;verticalAlign=top;align=center;html=1;shape=mxgraph.aws3.iam;fillColor=#759C3E;gradientColor=none;" vertex="1" parent="1">
          <mxGeometry x="1180" y="200" width="42" height="81" as="geometry" />
        </mxCell>
      </root>
    </mxGraphModel>
  </diagram>
</mxfile>
